<!DOCTYPE svg PUBLIC "-//W3C//DTD SVG 1.1//EN" "http://www.w3.org/Graphics/SVG/1.1/DTD/svg11.dtd">
<!-- Uploaded to: SVG Repo, www.svgrepo.com, Transformed by: SVG Repo Mixer Tools -->
<svg height="800px" width="800px" version="1.1" id="Layer_1" xmlns="http://www.w3.org/2000/svg" xmlns:xlink="http://www.w3.org/1999/xlink" viewBox="0 0 512 512" xml:space="preserve" fill="#000000">
<g id="SVGRepo_bgCarrier" stroke-width="0"/>
<g id="SVGRepo_tracerCarrier" stroke-linecap="round" stroke-linejoin="round"/>
<g id="SVGRepo_iconCarrier"> <g> <path style="fill:#EDEBDA;" d="M0,44.137V397.24h326.771v-70.735l3.302-1.651c7.636-3.814,16.887-0.177,19.88,7.812l7.424,19.791 c4.661,12.429,22.254,12.429,26.915,0l7.424-19.791c2.993-7.989,12.244-11.626,19.88-7.812l3.452,1.73v70.656H512V44.137H0z"/> <path style="fill:#DD342E;" d="M384.289,159.393l7.424,19.791c2.993,7.989,12.253,11.626,19.88,7.812l17.779-8.898 c12.359-6.17,25.459,6.93,19.288,19.279l-8.898,17.788c-3.814,7.627-0.177,16.887,7.812,19.88l19.791,7.424 c12.429,4.661,12.429,22.246,0,26.915l-19.791,7.415c-7.989,3.001-11.626,12.253-7.812,19.889l8.898,17.779 c6.17,12.35-6.93,25.459-19.288,19.279l-17.779-8.889c-7.627-3.814-16.887-0.185-19.88,7.804l-7.424,19.791 c-4.661,12.438-22.246,12.438-26.915,0l-7.415-19.791c-3.001-7.989-12.253-11.617-19.889-7.804l-17.779,8.889 c-12.35,6.179-25.459-6.93-19.279-19.279l8.889-17.779c3.814-7.636,0.185-16.887-7.804-19.889l-19.791-7.415 c-12.438-4.67-12.438-22.254,0-26.915l19.791-7.424c7.989-2.993,11.617-12.253,7.804-19.88l-8.889-17.788 c-6.179-12.35,6.93-25.45,19.279-19.279l17.779,8.898c7.636,3.814,16.887,0.177,19.889-7.812l7.415-19.791 C362.043,146.963,379.628,146.963,384.289,159.393"/> <path style="fill:#445793;" d="M411.594,324.856c-7.636-3.814-16.887-0.185-19.88,7.812l-7.424,19.791 c-4.661,12.429-22.254,12.429-26.915,0l-7.415-19.791c-3.001-7.998-12.253-11.626-19.889-7.812l-3.302,1.651v141.356l44.138-52.966 l44.138,52.966V326.586L411.594,324.856z"/> <path style="fill:#B12621;" d="M406.069,255.999c0,19.5-15.81,35.31-35.31,35.31c-19.5,0-35.31-15.81-35.31-35.31 s15.81-35.31,35.31-35.31C390.259,220.689,406.069,236.499,406.069,255.999"/> <g> <path style="fill:#CEC9AE;" d="M247.172,176.551H52.966c-4.882,0-8.828-3.946-8.828-8.828s3.946-8.828,8.828-8.828h194.207 c4.882,0,8.828,3.946,8.828,8.828S252.054,176.551,247.172,176.551"/> <path style="fill:#CEC9AE;" d="M300.138,123.585H52.966c-4.882,0-8.828-3.946-8.828-8.828c0-4.882,3.946-8.828,8.828-8.828 h247.172c4.882,0,8.828,3.946,8.828,8.828C308.966,119.639,305.02,123.585,300.138,123.585"/> <path style="fill:#CEC9AE;" d="M211.862,229.516H52.966c-4.882,0-8.828-3.946-8.828-8.828s3.946-8.828,8.828-8.828h158.897 c4.882,0,8.828,3.946,8.828,8.828S216.744,229.516,211.862,229.516"/> <path style="fill:#CEC9AE;" d="M167.724,282.482H52.966c-4.882,0-8.828-3.946-8.828-8.828c0-4.882,3.946-8.828,8.828-8.828 h114.759c4.882,0,8.828,3.946,8.828,8.828C176.552,278.536,172.606,282.482,167.724,282.482"/> <path style="fill:#CEC9AE;" d="M150.069,344.275H52.966c-4.882,0-8.828-3.946-8.828-8.828s3.946-8.828,8.828-8.828h97.103 c4.882,0,8.828,3.946,8.828,8.828S154.951,344.275,150.069,344.275"/> </g> </g> </g>
</svg>